<?xml version="1.0" ?><svg id="Icon" viewBox="0 0 64 64" xmlns="http://www.w3.org/2000/svg" xmlns:xlink="http://www.w3.org/1999/xlink"><defs><style>.cls-1{fill:#faa629;}.cls-2{fill:url(#linear-gradient);}</style><linearGradient gradientUnits="userSpaceOnUse" id="linear-gradient" x1="32.73" x2="32.73" y1="2.723" y2="45.278"><stop offset="0" stop-color="#ffd54f"/><stop offset="1" stop-color="#fcb316"/></linearGradient></defs><path class="cls-1" d="M19.521,8.515a1,1,0,0,0-1.184.772l-1.879,8.941a1,1,0,0,0,1.957.412L20.294,9.7A1,1,0,0,0,19.521,8.515Z"/><path class="cls-1" d="M16.59,22.468a1,1,0,0,0-1.185.772L11.992,39.48a1,1,0,0,0,1.957.413l3.413-16.241A1,1,0,0,0,16.59,22.468Z"/><path class="cls-1" d="M44.35,40.015a1,1,0,0,0-1.288.586l-2.6,6.948a1,1,0,0,0,1.873.7l2.6-6.948A1,1,0,0,0,44.35,40.015Z"/><path class="cls-1" d="M51.38,21.229a1,1,0,0,0-1.287.586L44.42,36.974a1,1,0,1,0,1.873.7l5.673-15.158A1,1,0,0,0,51.38,21.229Z"/><polygon class="cls-2" points="26.39 5 20.274 34.109 28.116 30 30.839 59 45.185 20.663 34.848 20.663 40.769 5 26.39 5"/></svg>