<?xml version="1.0" standalone="no"?><svg xmlns="http://www.w3.org/2000/svg" viewBox="0 0 1440 320"><path fill="#662916" fill-opacity="1" d="M0,288L20,266.7C40,245,80,203,120,154.7C160,107,200,53,240,42.7C280,32,320,64,360,117.3C400,171,440,245,480,240C520,235,560,149,600,144C640,139,680,213,720,224C760,235,800,181,840,154.7C880,128,920,128,960,106.7C1000,85,1040,43,1080,37.3C1120,32,1160,64,1200,112C1240,160,1280,224,1320,245.3C1360,267,1400,245,1420,234.7L1440,224L1440,320L1420,320C1400,320,1360,320,1320,320C1280,320,1240,320,1200,320C1160,320,1120,320,1080,320C1040,320,1000,320,960,320C920,320,880,320,840,320C800,320,760,320,720,320C680,320,640,320,600,320C560,320,520,320,480,320C440,320,400,320,360,320C320,320,280,320,240,320C200,320,160,320,120,320C80,320,40,320,20,320L0,320Z"></path></svg>